<svg width="43" height="44" viewBox="0 0 43 44" fill="none" xmlns="http://www.w3.org/2000/svg">
<g clip-path="url(#clip0)">
<path d="M21.1884 43.1029C32.8904 43.1029 42.3768 33.4771 42.3768 21.6029C42.3768 9.72881 32.8904 0.102936 21.1884 0.102936C9.48637 0.102936 0 9.72881 0 21.6029C0 33.4771 9.48637 43.1029 21.1884 43.1029Z" fill="#F79999" fill-opacity="0.5"/>
<path d="M16.648 31.4827C16.194 31.4827 15.7904 31.2779 15.4877 30.9708L11.0482 25.647C10.7455 25.2375 10.6446 24.7256 10.796 24.1625L11.704 21.347C11.8049 20.9886 12.0067 20.7327 12.3094 20.4767L24.3162 10.1363C24.7198 9.77793 25.2243 9.62436 25.7287 9.67555L33.0942 10.2386C33.9014 10.341 34.4059 11.0065 34.3555 11.8256L33.4474 18.9922C33.3969 19.4529 33.1951 19.9136 32.7915 20.2208L20.6839 30.5613C20.4316 30.8172 20.0785 30.9708 19.7254 31.022L16.8498 31.4827C16.7994 31.4827 16.6985 31.4827 16.648 31.4827ZM11.25 24.316C11.1491 24.6744 11.1996 25.0327 11.4014 25.2886L15.8408 30.6125C16.0426 30.8684 16.3958 30.9708 16.7489 30.9196L19.6245 30.4589C19.8767 30.4077 20.129 30.3053 20.3308 30.1517L32.388 19.7601C32.6907 19.5041 32.842 19.197 32.842 18.8386L33.7501 11.672C33.8005 11.1601 33.4474 10.7506 32.9429 10.6482L25.5774 10.0851C25.2243 10.0339 24.8711 10.1875 24.5684 10.3922L12.6121 20.8863C12.4103 21.0398 12.259 21.2958 12.1581 21.5517L11.25 24.316Z" fill="#333333"/>
<path d="M24.8454 10.1089L24.4609 10.4402L32.5908 20.1568L32.9754 19.8255L24.8454 10.1089Z" fill="#333333"/>
<path d="M23.8622 34.5541C23.4082 34.5541 22.9541 34.3493 22.6514 33.9398L9.28256 17.9684C8.87897 17.5077 8.77807 16.8934 8.97986 16.3815C9.18166 15.9208 9.58525 15.5624 10.0393 15.5113L19.5236 14.2315L19.5741 14.7434L10.0897 16.0232C9.78704 16.0743 9.5348 16.2791 9.4339 16.5863C9.28256 16.9446 9.38345 17.3541 9.6357 17.6613L23.0046 33.6327C23.2568 33.9398 23.6604 34.0934 24.0135 34.0422C24.3162 33.991 24.5685 33.7863 24.6694 33.4279L27.4945 24.1624L27.999 24.316L25.1739 33.5815C25.0225 34.0934 24.6694 34.4005 24.1649 34.5029C24.064 34.5541 23.9631 34.5541 23.8622 34.5541Z" fill="#333333"/>
<path d="M22.0965 25.0327C20.8857 25.0327 19.6749 24.5208 18.8173 23.497C18.0606 22.6267 17.7074 21.5005 17.8083 20.3232C17.9092 19.1458 18.4137 18.122 19.3218 17.3541C20.1794 16.5863 21.2893 16.2279 22.4496 16.3303C23.6099 16.4327 24.6189 16.9446 25.3756 17.866C26.8891 19.7089 26.6873 22.422 24.8711 24.0089C24.064 24.6744 23.1054 25.0327 22.0965 25.0327ZM22.0965 16.8422C21.1884 16.8422 20.3308 17.1494 19.6749 17.7636C18.9182 18.4291 18.4137 19.3505 18.3633 20.3744C18.2624 21.3982 18.6155 22.3708 19.2713 23.1898C20.6335 24.7767 23.0045 24.9815 24.6189 23.6505C26.1828 22.2684 26.3846 19.8625 25.0729 18.2244C24.4171 17.4565 23.509 16.9446 22.5 16.8934C22.2983 16.8422 22.1974 16.8422 22.0965 16.8422Z" fill="#333333"/>
<path d="M9.13118 31.9434C9.08073 31.9434 8.97984 31.8922 8.92939 31.841C8.82849 31.7386 8.82849 31.5851 8.97984 31.4827L12.0572 28.8208C12.1581 28.7184 12.3094 28.7184 12.4103 28.872C12.5112 28.9744 12.5112 29.1279 12.3599 29.2303L9.28253 31.841C9.23208 31.8922 9.18163 31.9434 9.13118 31.9434Z" fill="#333333"/>
<path d="M10.8969 27.6946C10.8969 27.6946 10.8464 27.6946 10.8969 27.6946L7.31505 27.4387C7.1637 27.4387 7.06281 27.2851 7.06281 27.1827C7.06281 27.0803 7.21415 26.9267 7.31505 26.9267L10.8464 27.1827C10.9978 27.1827 11.0987 27.3363 11.0987 27.4387C11.0987 27.5922 10.9978 27.6946 10.8969 27.6946Z" fill="#333333"/>
<path d="M13.2175 34.4005C13.0662 34.4005 12.9653 34.247 12.9653 34.1446L13.2175 30.5613C13.2175 30.4077 13.3689 30.3053 13.4698 30.3053C13.6211 30.3053 13.722 30.4589 13.722 30.5613L13.4698 34.1446C13.4698 34.2982 13.3689 34.4005 13.2175 34.4005Z" fill="#333333"/>
</g>
<defs>
<clipPath id="clip0">
<rect width="42.3768" height="43" fill="white" transform="translate(0 0.102936)"/>
</clipPath>
</defs>
</svg>
