<svg width="43" height="43" viewBox="0 0 43 43" fill="none" xmlns="http://www.w3.org/2000/svg">
<path d="M21.5 43C33.3741 43 43 33.3741 43 21.5C43 9.62588 33.3741 0 21.5 0C9.62588 0 0 9.62588 0 21.5C0 33.3741 9.62588 43 21.5 43Z" fill="#AAD0FF" fill-opacity="0.5"/>
<path d="M32.6083 34.2464H11.4155C10.1869 34.2464 9.21428 33.2738 9.21428 32.0452V9.87976C9.21428 8.65119 10.1869 7.67857 11.4155 7.67857H28.3083C29.5369 7.67857 30.5095 8.65119 30.5095 9.87976V24.8274H29.9976V9.87976C29.9976 8.95834 29.2298 8.19048 28.3083 8.19048H11.4155C10.494 8.19048 9.72618 8.95834 9.72618 9.87976V32.0452C9.72618 32.9667 10.494 33.7345 11.4155 33.7345H32.6083V34.2464Z" fill="#333333"/>
<path d="M27.8476 15.9203H11.825C11.4667 15.9203 11.1595 15.6131 11.1595 15.2548V10.8012C11.1595 10.4429 11.4667 10.1357 11.825 10.1357H27.8988C28.2571 10.1357 28.5643 10.4429 28.5643 10.8012V15.2548C28.5643 15.6131 28.2571 15.9203 27.8476 15.9203ZM11.825 10.6476C11.7226 10.6476 11.6714 10.6988 11.6714 10.8012V15.2548C11.6714 15.3572 11.7226 15.4083 11.825 15.4083H27.8988C28.0012 15.4083 28.0524 15.3572 28.0524 15.2548V10.8012C28.0524 10.6988 28.0012 10.6476 27.8988 10.6476H11.825Z" fill="#333333"/>
<path d="M17.7119 30.8679H12.2857C11.9274 30.8679 11.6202 30.5607 11.6202 30.2024V24.7762C11.6202 24.4179 11.9274 24.1107 12.2857 24.1107H17.7119C18.0702 24.1107 18.3774 24.4179 18.3774 24.7762V30.2024C18.4286 30.6119 18.1214 30.8679 17.7119 30.8679ZM12.2857 24.6226C12.1833 24.6226 12.1321 24.6738 12.1321 24.7762V30.2024C12.1321 30.3048 12.1833 30.356 12.2857 30.356H17.7119C17.8143 30.356 17.8655 30.3048 17.8655 30.2024V24.7762C17.8655 24.6738 17.8143 24.6226 17.7119 24.6226H12.2857Z" fill="#333333"/>
<path d="M20.0667 19.8107H11.3643C11.2107 19.8107 11.1083 19.7083 11.1083 19.5548C11.1083 19.4012 11.2107 19.2988 11.3643 19.2988H20.0667C20.2202 19.2988 20.3226 19.4012 20.3226 19.5548C20.3226 19.7083 20.2202 19.8107 20.0667 19.8107Z" fill="#333333"/>
<path d="M20.0667 22.2167H11.3643C11.2107 22.2167 11.1083 22.1143 11.1083 21.9607C11.1083 21.8072 11.2107 21.7048 11.3643 21.7048H20.0667C20.2202 21.7048 20.3226 21.8072 20.3226 21.9607C20.3226 22.1143 20.2202 22.2167 20.0667 22.2167Z" fill="#333333"/>
<path d="M28.0524 19.8107H23.7012C23.5476 19.8107 23.4452 19.7083 23.4452 19.5548C23.4452 19.4012 23.5476 19.2988 23.7012 19.2988H28.0524C28.206 19.2988 28.3083 19.4012 28.3083 19.5548C28.3083 19.7083 28.206 19.8107 28.0524 19.8107Z" fill="#333333"/>
<path d="M20.0667 17.8655H11.3643C11.2107 17.8655 11.1083 17.7631 11.1083 17.6095C11.1083 17.456 11.2107 17.3536 11.3643 17.3536H20.0667C20.2202 17.3536 20.3226 17.456 20.3226 17.6095C20.3226 17.7631 20.2202 17.8655 20.0667 17.8655Z" fill="#333333"/>
<path d="M28.0524 17.8655H23.7012C23.5476 17.8655 23.4452 17.7631 23.4452 17.6095C23.4452 17.456 23.5476 17.3536 23.7012 17.3536H28.0524C28.206 17.3536 28.3083 17.456 28.3083 17.6095C28.3083 17.7631 28.206 17.8655 28.0524 17.8655Z" fill="#333333"/>
<path d="M28.0524 22.2167H23.7012C23.5476 22.2167 23.4452 22.1143 23.4452 21.9607C23.4452 21.8072 23.5476 21.7048 23.7012 21.7048H28.0524C28.206 21.7048 28.3083 21.8072 28.3083 21.9607C28.3083 22.1143 28.206 22.2167 28.0524 22.2167Z" fill="#333333"/>
<path d="M28.1036 25.5952H20.425C20.2714 25.5952 20.169 25.4929 20.169 25.3393C20.169 25.1857 20.2714 25.0833 20.425 25.0833H28.1547C28.3083 25.0833 28.4107 25.1857 28.4107 25.3393C28.4107 25.4929 28.2571 25.5952 28.1036 25.5952Z" fill="#333333"/>
<path d="M28.1036 28.0012H20.425C20.2714 28.0012 20.169 27.8988 20.169 27.7452C20.169 27.5917 20.2714 27.4893 20.425 27.4893H28.1547C28.3083 27.4893 28.4107 27.5917 28.4107 27.7452C28.4107 27.8988 28.2571 28.0012 28.1036 28.0012Z" fill="#333333"/>
<path d="M28.1036 30.4072H20.425C20.2714 30.4072 20.169 30.3048 20.169 30.1512C20.169 29.9976 20.2714 29.8952 20.425 29.8952H28.1547C28.3083 29.8952 28.4107 29.9976 28.4107 30.1512C28.4107 30.3048 28.2571 30.4072 28.1036 30.4072Z" fill="#333333"/>
<path d="M32.4548 34.2464H32.3524C31.0214 34.2464 29.9976 33.1714 29.9976 31.8917V24.3667C29.9976 23.9571 30.356 23.5988 30.7655 23.5988H34.0929C34.5024 23.5988 34.8607 23.9571 34.8607 24.3667V31.8917C34.8095 33.2226 33.7345 34.2464 32.4548 34.2464ZM30.7143 24.1619C30.5607 24.1619 30.4583 24.2643 30.4583 24.4178V31.9429C30.4583 32.9667 31.2774 33.7857 32.3012 33.7857H32.4036C33.4274 33.7857 34.2464 32.9667 34.2464 31.9429V24.3667C34.2464 24.2131 34.1441 24.1107 33.9905 24.1107H30.7143V24.1619Z" fill="#333333"/>
</svg>
