<svg viewBox="0 0 49 49" fill="none" xmlns="http://www.w3.org/2000/svg">
<g clip-path="url(#clip0)">
<path d="M44.1782 28.7173L22.7733 24.8446L18.1795 46.276C19.9063 46.7026 21.6656 46.8995 23.49 46.8667C34.0459 46.7354 42.5818 38.9243 44.1782 28.7173Z" fill="#B2EEDF" stroke="#333333" stroke-miterlimit="10"/>
<path d="M23.8158 0.393833L24.5652 23.5646L44.1782 12.1762C40.1057 5.05425 32.4169 0.295374 23.8158 0.393833Z" fill="#FFDFA6" stroke="#333333" stroke-miterlimit="10"/>
<path d="M0.423552 24.943C0.521291 28.4219 1.43353 31.7039 2.9322 34.6248L22.0565 24.6804L1.14031 18.6088C0.61903 20.6436 0.358392 22.7441 0.423552 24.943Z" fill="#FFDFA6" stroke="#333333" stroke-miterlimit="10"/>
<path d="M17.0067 45.9478C17.7234 46.1775 18.1469 46.2431 18.1469 46.2431C17.7886 46.1775 17.3976 46.079 17.0067 45.9478Z" fill="#007CD6"/>
<path d="M27.139 24.024L45.8072 13.1935C45.8072 13.1935 50.01 19.659 48.5439 27.9296L27.139 24.024Z" fill="#E3CCFF" stroke="#333333" stroke-miterlimit="10"/>
<path d="M20.6556 27.3717L16.0293 48.8031C16.0293 48.8031 6.67886 46.9652 1.53125 37.3161L20.6556 27.3717Z" fill="#E3CCFF" stroke="#333333" stroke-miterlimit="10"/>
<path d="M20.4601 0.164062L21.1769 22.219L0.19548 16.1801C0.19548 16.1801 4.10505 0.360981 20.4601 0.164062Z" fill="#B2EEDF" stroke="#333333" stroke-miterlimit="10"/>
</g>
<defs>
<clipPath id="clip0">
<rect width="49" height="49" fill="white"/>
</clipPath>
</defs>
</svg>
