<svg viewBox="0 0 104 103" fill="none" xmlns="http://www.w3.org/2000/svg">
<path d="M13.5677 67.9589C9.71409 59.2683 8.82486 49.4028 11.2864 40.2163C14.8419 26.9469 24.7707 16.2605 38.1248 11.7431L42.8897 25.2727C34.1608 28.185 27.6467 35.1916 25.2946 43.9698C23.6536 50.0941 24.182 56.3621 26.8379 62.1062L13.5677 67.9589Z" fill="#E3CCFF"/>
<path d="M40.8868 91.2517C28.5267 87.9398 18.6734 79.392 13.3615 67.9039L26.3711 62.2001C29.8254 69.9085 36.3116 75.3661 44.5518 77.5741C55.2639 80.4444 66.6418 76.7102 73.3874 68.0153L84.7374 76.7453C74.5642 89.9919 57.3671 95.6676 40.8868 91.2517Z" fill="#B2EEDF"/>
<path d="M84.7376 76.7451L73.3876 68.015C75.7049 65.1351 77.2528 61.8303 78.1827 58.3598C80.6989 48.9692 77.9975 39.2745 71.2762 32.2223L81.659 22.3139C91.8986 32.7156 95.9652 48.0274 92.1909 62.1133C90.7687 67.421 88.3711 72.2487 84.7376 76.7451Z" fill="#FFDFA6"/>
<path d="M42.6835 25.2176L37.9186 11.688C45.9201 9.01834 54.4047 8.66615 62.4388 10.8189C69.8549 12.806 76.312 16.7242 81.7135 22.11L71.5367 32.0736C68.0731 28.5199 63.6632 26.0254 58.9252 24.7559C53.3631 23.2655 48.0361 23.3698 42.6835 25.2176Z" fill="#E3CCFF"/>
</svg>
