<svg viewBox="0 0 84 75" fill="none" xmlns="http://www.w3.org/2000/svg">
<path d="M29.9269 42.029L21.7377 45.1747L28.3503 62.3898L36.5396 59.2441L29.9269 42.029Z" fill="#B2EEDF"/>
<path d="M44.4428 43.8858L36.2535 47.0315L40.3783 57.7696L48.5675 54.6239L44.4428 43.8858Z" fill="#E3CCFF"/>
<path d="M21.7618 56.7055L13.5725 59.8512L16.3223 67.0099L24.5116 63.8643L21.7618 56.7055Z" fill="#E3CCFF"/>
<path d="M54.5067 34.1522L46.3174 37.2979L52.4063 53.1494L60.5955 50.0037L54.5067 34.1522Z" fill="#B2EEDF"/>
<path d="M61.8535 17.3452L53.6642 20.4908L64.467 48.6145L72.6563 45.4688L61.8535 17.3452Z" fill="#E3CCFF"/>
<path d="M10.5549 51.2306L22.0171 31.3758L38.1994 32.9836L51.1225 6.99307" stroke="#333333" stroke-linecap="round" stroke-linejoin="round"/>
<path d="M52.2919 4.68571L51.9478 8.632L51.0174 7.22905L49.2855 7.30752L52.2919 4.68571Z" fill="#333333"/>
<path d="M18.7577 73.605L83.2482 48.8329L69.139 12.1017" stroke="#333333" stroke-miterlimit="10" stroke-linecap="round" stroke-linejoin="round"/>
</svg>
