<svg width="43" height="43" viewBox="0 0 43 43" fill="none" xmlns="http://www.w3.org/2000/svg">
<path d="M21.5 43C33.368 43 43 33.368 43 21.5C43 9.632 33.368 0 21.5 0C9.632 0 0 9.632 0 21.5C0 33.368 9.632 43 21.5 43Z" fill="#DDF3DF"/>
<path d="M30.9375 23.2827V29.8187C30.9375 30.6787 30.1635 31.3667 29.2175 31.3667H24.9175" stroke="#333333" stroke-width="0.479" stroke-miterlimit="10" stroke-linecap="round"/>
<path d="M24.9175 12.4467H29.2175C30.1635 12.4467 30.9375 13.1347 30.9375 13.9947V20.4447" stroke="#333333" stroke-width="0.479" stroke-miterlimit="10" stroke-linecap="round"/>
<path d="M22.8533 33.5167L12.7913 31.4527C12.6193 31.4527 12.4473 31.1947 12.4473 31.0227V12.7907C12.4473 12.6187 12.6193 12.4467 12.7913 12.3607L23.1973 10.2107C24.0573 10.0387 24.9173 10.7267 24.9173 11.5867V31.3667V31.7967C24.9173 32.9147 23.8853 33.7747 22.8533 33.5167Z" stroke="#333333" stroke-width="0.5" stroke-miterlimit="10"/>
<path d="M21.9072 22.5947C22.2872 22.5947 22.5952 22.2867 22.5952 21.9067C22.5952 21.5267 22.2872 21.2187 21.9072 21.2187C21.5273 21.2187 21.2192 21.5267 21.2192 21.9067C21.2192 22.2867 21.5273 22.5947 21.9072 22.5947Z" fill="#333333"/>
<path d="M26.895 21.8078C26.8071 21.72 26.8071 21.5775 26.895 21.4896L28.3269 20.0577C28.4147 19.9699 28.5572 19.9699 28.6451 20.0577C28.7329 20.1456 28.7329 20.2881 28.6451 20.3759L27.3723 21.6487L28.6451 22.9215C28.7329 23.0094 28.7329 23.1518 28.6451 23.2397C28.5572 23.3276 28.4147 23.3276 28.3269 23.2397L26.895 21.8078ZM33.9341 21.8737H27.0541V21.4237H33.9341V21.8737Z" fill="#333333"/>
</svg>
