<svg width="43" height="44" viewBox="0 0 43 44" fill="none" xmlns="http://www.w3.org/2000/svg">
<path d="M21.5 43.1029C33.3741 43.1029 43 33.4771 43 21.6029C43 9.72881 33.3741 0.102936 21.5 0.102936C9.62588 0.102936 0 9.72881 0 21.6029C0 33.4771 9.62588 43.1029 21.5 43.1029Z" fill="#BFECDF" fill-opacity="0.5"/>
<path d="M31.4821 34.6875H11.6202C10.3405 34.6875 9.31665 33.6486 9.31665 32.35V11.5727C9.31665 10.2742 10.3405 9.23529 11.6202 9.23529H31.4821C32.7619 9.23529 33.7857 10.2742 33.7857 11.5727V32.35C33.7857 33.6486 32.7619 34.6875 31.4821 34.6875ZM11.6202 9.75472C10.6476 9.75472 9.82856 10.5858 9.82856 11.5727V32.35C9.82856 33.337 10.6476 34.1681 11.6202 34.1681H31.4821C32.4547 34.1681 33.2738 33.337 33.2738 32.35V11.5727C33.2738 10.5858 32.4547 9.75472 31.4821 9.75472H11.6202Z" fill="#333333"/>
<path d="M31.0726 19.2603H11.825C11.4666 19.2603 11.1595 18.9487 11.1595 18.5851V14.7932C11.1595 14.4296 11.4666 14.118 11.825 14.118H31.0726C31.4309 14.118 31.7381 14.4296 31.7381 14.7932V18.5851C31.7381 18.9487 31.4309 19.2603 31.0726 19.2603ZM11.825 14.6374C11.7226 14.6374 11.6714 14.6893 11.6714 14.7932V18.5851C11.6714 18.689 11.7226 18.7409 11.825 18.7409H31.0726C31.175 18.7409 31.2262 18.689 31.2262 18.5851V14.7932C31.2262 14.6893 31.175 14.6374 31.0726 14.6374H11.825Z" fill="#333333"/>
<path d="M31.0726 25.961H21.0393C20.6809 25.961 20.3738 25.6493 20.3738 25.2857V21.0783C20.3738 20.7147 20.6809 20.4031 21.0393 20.4031H31.0726C31.4309 20.4031 31.7381 20.7147 31.7381 21.0783V25.2857C31.7381 25.6493 31.4309 25.961 31.0726 25.961ZM21.0393 20.8706C20.9369 20.8706 20.8857 20.9225 20.8857 21.0264V25.2338C20.8857 25.3377 20.9369 25.3896 21.0393 25.3896H31.0726C31.175 25.3896 31.2262 25.3377 31.2262 25.2338V21.0264C31.2262 20.9225 31.175 20.8706 31.0726 20.8706H21.0393Z" fill="#333333"/>
<path d="M31.0726 32.7656H21.0393C20.6809 32.7656 20.3738 32.4539 20.3738 32.0903V27.6752C20.3738 27.3116 20.6809 26.9999 21.0393 26.9999H31.0726C31.4309 26.9999 31.7381 27.3116 31.7381 27.6752V32.0903C31.7381 32.4539 31.4309 32.7656 31.0726 32.7656ZM21.0393 27.5193C20.9369 27.5193 20.8857 27.5713 20.8857 27.6752V32.0903C20.8857 32.1942 20.9369 32.2462 21.0393 32.2462H31.0726C31.175 32.2462 31.2262 32.1942 31.2262 32.0903V27.6752C31.2262 27.5713 31.175 27.5193 31.0726 27.5193H21.0393Z" fill="#333333"/>
<path d="M18.275 32.7136H11.825C11.4666 32.7136 11.1595 32.402 11.1595 32.0384V20.9225C11.1595 20.5589 11.4666 20.2473 11.825 20.2473H18.275C18.6333 20.2473 18.9404 20.5589 18.9404 20.9225V32.0384C18.9404 32.402 18.6333 32.7136 18.275 32.7136ZM11.825 20.7667C11.7226 20.7667 11.6714 20.8186 11.6714 20.9225V32.0384C11.6714 32.1423 11.7226 32.1942 11.825 32.1942H18.275C18.3773 32.1942 18.4285 32.1423 18.4285 32.0384V20.9225C18.4285 20.8186 18.3773 20.7667 18.275 20.7667H11.825Z" fill="#333333"/>
<path d="M33.5297 12.4558H9.47021V12.9752H33.5297V12.4558Z" fill="#333333"/>
<path d="M11.5178 11.5727C11.8005 11.5727 12.0297 11.3402 12.0297 11.0533C12.0297 10.7664 11.8005 10.5339 11.5178 10.5339C11.2351 10.5339 11.0059 10.7664 11.0059 11.0533C11.0059 11.3402 11.2351 11.5727 11.5178 11.5727Z" fill="#333333"/>
<path d="M13.3095 11.5727C13.5922 11.5727 13.8214 11.3402 13.8214 11.0533C13.8214 10.7664 13.5922 10.5339 13.3095 10.5339C13.0268 10.5339 12.7976 10.7664 12.7976 11.0533C12.7976 11.3402 13.0268 11.5727 13.3095 11.5727Z" fill="#333333"/>
<path d="M15.1012 11.5727C15.3839 11.5727 15.6131 11.3402 15.6131 11.0533C15.6131 10.7664 15.3839 10.5339 15.1012 10.5339C14.8185 10.5339 14.5893 10.7664 14.5893 11.0533C14.5893 11.3402 14.8185 11.5727 15.1012 11.5727Z" fill="#333333"/>
</svg>
