<svg width="43" height="44" viewBox="0 0 43 44" fill="none" xmlns="http://www.w3.org/2000/svg">
<g clip-path="url(#clip0)">
<path d="M21.5 43.1029C33.3741 43.1029 43 33.4771 43 21.6029C43 9.72881 33.3741 0.102936 21.5 0.102936C9.62588 0.102936 0 9.72881 0 21.6029C0 33.4771 9.62588 43.1029 21.5 43.1029Z" fill="#E3CCFF" fill-opacity="0.5"/>
<path d="M29.5881 9.21485C31.994 9.21485 33.9393 11.1601 33.9393 13.566V29.7422C33.9393 32.1482 31.994 34.0934 29.5881 34.0934H13.4119C11.0059 34.0934 9.0607 32.1482 9.0607 29.7422V13.5148C9.0607 11.1089 11.0059 9.16366 13.4119 9.16366H29.5881V9.21485ZM29.5881 8.70294H13.4119C10.75 8.70294 8.5488 10.8529 8.5488 13.566V29.7422C8.5488 32.4041 10.6988 34.6053 13.4119 34.6053H29.5881C32.25 34.6053 34.4512 32.4553 34.4512 29.7422V13.5148C34.4 10.8529 32.25 8.70294 29.5881 8.70294Z" fill="#333333"/>
<path d="M21.7559 9.11247H21.244V34.1446H21.7559V9.11247Z" fill="#333333"/>
<path d="M33.9393 21.1934H8.90714V21.7053H33.9393V21.1934Z" fill="#333333"/>
<path d="M28.8714 15.1017V15.5625H27.0286V15.1017H28.8714Z" fill="#333333"/>
<path d="M15.5107 13.4125V15.1529H17.2V15.6136H15.5107V17.3541H15.05V15.6136H13.3607V15.1529H15.05V13.4125H15.5107Z" fill="#333333"/>
<path d="M29.1274 26.0565L27.8988 27.2851L29.0762 28.4625L28.769 28.7696L27.5917 27.5922L26.3631 28.8208L26.0048 28.4625L27.2333 27.2339L26.056 26.0565L26.3631 25.7494L27.5405 26.9268L28.769 25.6982L29.1274 26.0565Z" fill="#333333"/>
<path d="M13.3607 27.8994V27.4387H17.1488V27.8994H13.3607ZM14.8452 26.3637C14.8452 26.1077 14.9988 25.9541 15.2548 25.9541C15.4595 25.9541 15.6643 26.1077 15.6643 26.3637C15.6643 26.5684 15.5107 26.7732 15.2548 26.7732C14.9988 26.7732 14.8452 26.6196 14.8452 26.3637ZM14.8452 28.9744C14.8452 28.7184 14.9988 28.5648 15.2548 28.5648C15.4595 28.5648 15.6643 28.7184 15.6643 28.9744C15.6643 29.1791 15.5107 29.3839 15.2548 29.3839C14.9988 29.3839 14.8452 29.1791 14.8452 28.9744Z" fill="#333333"/>
</g>
<defs>
<clipPath id="clip0">
<rect width="43" height="43" fill="white" transform="translate(0 0.102936)"/>
</clipPath>
</defs>
</svg>
